<mxfile host="app.diagrams.net" modified="2023-11-09T10:52:00.612Z" agent="Mozilla/5.0 (Windows NT 10.0; Win64; x64) AppleWebKit/537.36 (KHTML, like Gecko) Chrome/119.0.0.0 Safari/537.36" etag="5SvXfMnXQs1xCBNB_ZS-" version="22.0.8" type="github">
  <diagram name="Page-1" id="13e1069c-82ec-6db2-03f1-153e76fe0fe0">
    <mxGraphModel dx="1194" dy="604" grid="1" gridSize="10" guides="1" tooltips="1" connect="1" arrows="1" fold="1" page="1" pageScale="1" pageWidth="1100" pageHeight="850" background="none" math="0" shadow="0">
      <root>
        <mxCell id="0" />
        <mxCell id="1" parent="0" />
        <mxCell id="7baba1c4bc27f4b0-17" value="runMenuOptions()" style="html=1;verticalAlign=bottom;endArrow=block;labelBackgroundColor=none;fontFamily=Verdana;fontSize=13;edgeStyle=elbowEdgeStyle;elbow=vertical;strokeColor=#006658;fontColor=default;fontStyle=1" parent="1" source="7baba1c4bc27f4b0-13" target="7baba1c4bc27f4b0-16" edge="1">
          <mxGeometry relative="1" as="geometry">
            <mxPoint x="620" y="350" as="sourcePoint" />
            <Array as="points">
              <mxPoint x="570" y="350" />
            </Array>
          </mxGeometry>
        </mxCell>
        <mxCell id="7baba1c4bc27f4b0-20" value="searchMenu()" style="html=1;verticalAlign=bottom;endArrow=block;entryX=0;entryY=0;labelBackgroundColor=none;fontFamily=Verdana;fontSize=13;edgeStyle=elbowEdgeStyle;elbow=vertical;strokeColor=#006658;fontColor=default;fontStyle=1" parent="1" source="7baba1c4bc27f4b0-16" target="7baba1c4bc27f4b0-19" edge="1">
          <mxGeometry relative="1" as="geometry">
            <mxPoint x="780" y="360" as="sourcePoint" />
          </mxGeometry>
        </mxCell>
        <mxCell id="7baba1c4bc27f4b0-11" value="Run PizzaStore" style="html=1;verticalAlign=bottom;endArrow=block;entryX=0;entryY=0;labelBackgroundColor=none;fontFamily=Verdana;fontSize=13;edgeStyle=elbowEdgeStyle;elbow=vertical;strokeColor=#006658;fontColor=default;fontStyle=1" parent="1" source="7baba1c4bc27f4b0-9" target="7baba1c4bc27f4b0-10" edge="1">
          <mxGeometry relative="1" as="geometry">
            <mxPoint x="320" y="320" as="sourcePoint" />
          </mxGeometry>
        </mxCell>
        <mxCell id="7baba1c4bc27f4b0-14" value="runStore()" style="html=1;verticalAlign=bottom;endArrow=block;entryX=0;entryY=0;labelBackgroundColor=none;fontFamily=Verdana;fontSize=13;edgeStyle=elbowEdgeStyle;elbow=vertical;strokeColor=#006658;fontColor=default;fontStyle=1" parent="1" source="7baba1c4bc27f4b0-10" target="7baba1c4bc27f4b0-13" edge="1">
          <mxGeometry relative="1" as="geometry">
            <mxPoint x="480" y="330" as="sourcePoint" />
          </mxGeometry>
        </mxCell>
        <mxCell id="7baba1c4bc27f4b0-40" value="Console" style="shape=note;whiteSpace=wrap;html=1;size=14;verticalAlign=middle;align=center;spacingTop=-6;rounded=0;shadow=0;comic=0;labelBackgroundColor=none;strokeWidth=1;fontFamily=Verdana;fontSize=12;fillColor=#21C0A5;strokeColor=#006658;fontColor=#5C5C5C;fontStyle=1" parent="1" vertex="1">
          <mxGeometry x="130" y="130" width="140" height="65" as="geometry" />
        </mxCell>
        <mxCell id="7baba1c4bc27f4b0-41" value="Main()" style="shape=note;whiteSpace=wrap;html=1;size=14;verticalAlign=middle;align=center;spacingTop=-6;rounded=0;shadow=0;comic=0;labelBackgroundColor=none;strokeWidth=1;fontFamily=Verdana;fontSize=12;fillColor=#21C0A5;strokeColor=#006658;fontColor=#5C5C5C;fontStyle=1" parent="1" vertex="1">
          <mxGeometry x="305" y="130" width="140" height="65" as="geometry" />
        </mxCell>
        <mxCell id="7baba1c4bc27f4b0-42" value=":Store will run throughout" style="shape=note;whiteSpace=wrap;html=1;size=14;verticalAlign=middle;align=center;spacingTop=-6;rounded=0;shadow=0;comic=0;labelBackgroundColor=none;strokeWidth=1;fontFamily=Verdana;fontSize=12;fillColor=#21C0A5;strokeColor=#006658;fontColor=#5C5C5C;fontStyle=1" parent="1" vertex="1">
          <mxGeometry x="480" y="130" width="140" height="65" as="geometry" />
        </mxCell>
        <mxCell id="7baba1c4bc27f4b0-43" value=":PizzaMenu will exists throughout&amp;nbsp;" style="shape=note;whiteSpace=wrap;html=1;size=14;verticalAlign=middle;align=center;spacingTop=-6;rounded=0;shadow=0;comic=0;labelBackgroundColor=none;strokeWidth=1;fontFamily=Verdana;fontSize=12;fillColor=#21C0A5;strokeColor=#006658;fontColor=#5C5C5C;fontStyle=1" parent="1" vertex="1">
          <mxGeometry x="655" y="130" width="140" height="65" as="geometry" />
        </mxCell>
        <mxCell id="7baba1c4bc27f4b0-44" value="Method() call ReadYesNo() :Store" style="shape=note;whiteSpace=wrap;html=1;size=14;verticalAlign=middle;align=center;spacingTop=-6;rounded=0;shadow=0;comic=0;labelBackgroundColor=none;strokeWidth=1;fontFamily=Verdana;fontSize=12;fillColor=#21C0A5;strokeColor=#006658;fontColor=#5C5C5C;fontStyle=1" parent="1" vertex="1">
          <mxGeometry x="830" y="130" width="140" height="65" as="geometry" />
        </mxCell>
        <mxCell id="7baba1c4bc27f4b0-21" value="readYesNo()" style="html=1;verticalAlign=bottom;endArrow=open;dashed=1;endSize=8;labelBackgroundColor=none;fontFamily=Verdana;fontSize=13;edgeStyle=elbowEdgeStyle;elbow=vertical;strokeColor=#006658;fontColor=default;fontStyle=1" parent="1" edge="1">
          <mxGeometry relative="1" as="geometry">
            <mxPoint x="204" y="400" as="targetPoint" />
            <Array as="points">
              <mxPoint x="780" y="400" />
              <mxPoint x="810" y="400" />
            </Array>
            <mxPoint x="899.5" y="400" as="sourcePoint" />
          </mxGeometry>
        </mxCell>
        <mxCell id="_Ka-3ppvNhgsYm56-xYQ-6" value="userInput(int)" style="html=1;verticalAlign=bottom;labelBackgroundColor=none;endArrow=open;endFill=0;rounded=0;strokeWidth=1;jumpSize=5;strokeColor=#006658;fontColor=default;fontStyle=1;fontSize=13;targetPerimeterSpacing=0;" edge="1" parent="1" source="KyJKAtGvloRyp1-fjpM2-8">
          <mxGeometry width="160" relative="1" as="geometry">
            <mxPoint x="205" y="439" as="sourcePoint" />
            <mxPoint x="719" y="439" as="targetPoint" />
          </mxGeometry>
        </mxCell>
        <mxCell id="_Ka-3ppvNhgsYm56-xYQ-10" value="return: message(notFound)" style="html=1;verticalAlign=bottom;endArrow=open;dashed=1;endSize=8;curved=0;rounded=0;targetPerimeterSpacing=0;sourcePerimeterSpacing=0;startSize=0;labelBackgroundColor=none;strokeColor=#006658;fontColor=default;fontStyle=1;fontSize=13;" edge="1" parent="1">
          <mxGeometry relative="1" as="geometry">
            <mxPoint x="720" y="520" as="sourcePoint" />
            <mxPoint x="205" y="520" as="targetPoint" />
          </mxGeometry>
        </mxCell>
        <mxCell id="7baba1c4bc27f4b0-2" value=":Program" style="shape=umlLifeline;perimeter=lifelinePerimeter;whiteSpace=wrap;html=1;container=1;collapsible=0;recursiveResize=0;outlineConnect=0;rounded=1;shadow=0;comic=0;labelBackgroundColor=none;strokeWidth=1;fontFamily=Verdana;fontSize=13;align=center;fillColor=#21C0A5;strokeColor=#006658;fontColor=#5C5C5C;fontStyle=1" parent="1" vertex="1">
          <mxGeometry x="325" y="210" width="100" height="480" as="geometry" />
        </mxCell>
        <mxCell id="7baba1c4bc27f4b0-10" value="" style="html=1;points=[];perimeter=orthogonalPerimeter;rounded=0;shadow=0;comic=0;labelBackgroundColor=none;strokeWidth=1;fontFamily=Verdana;fontSize=13;align=center;fillColor=#21C0A5;strokeColor=#006658;fontColor=#5C5C5C;fontStyle=1" parent="7baba1c4bc27f4b0-2" vertex="1">
          <mxGeometry x="45" y="100" width="10" height="30" as="geometry" />
        </mxCell>
        <mxCell id="7baba1c4bc27f4b0-3" value=":Store" style="shape=umlLifeline;perimeter=lifelinePerimeter;whiteSpace=wrap;html=1;container=1;collapsible=0;recursiveResize=0;outlineConnect=0;rounded=1;shadow=0;comic=0;labelBackgroundColor=none;strokeWidth=1;fontFamily=Verdana;fontSize=13;align=center;fillColor=#21C0A5;strokeColor=#006658;fontColor=#5C5C5C;fontStyle=1" parent="1" vertex="1">
          <mxGeometry x="500" y="210" width="100" height="480" as="geometry" />
        </mxCell>
        <mxCell id="7baba1c4bc27f4b0-13" value="" style="html=1;points=[];perimeter=orthogonalPerimeter;rounded=0;shadow=0;comic=0;labelBackgroundColor=none;strokeWidth=1;fontFamily=Verdana;fontSize=13;align=center;fillColor=#21C0A5;strokeColor=#006658;fontColor=#5C5C5C;fontStyle=1" parent="7baba1c4bc27f4b0-3" vertex="1">
          <mxGeometry x="45" y="120" width="10" height="30" as="geometry" />
        </mxCell>
        <mxCell id="7baba1c4bc27f4b0-4" value=":PizzaMenu" style="shape=umlLifeline;perimeter=lifelinePerimeter;whiteSpace=wrap;html=1;container=1;collapsible=0;recursiveResize=0;outlineConnect=0;rounded=1;shadow=0;comic=0;labelBackgroundColor=none;strokeWidth=1;fontFamily=Verdana;fontSize=13;align=center;fillColor=#21C0A5;strokeColor=#006658;fontColor=#5C5C5C;fontStyle=1" parent="1" vertex="1">
          <mxGeometry x="675" y="210" width="100" height="480" as="geometry" />
        </mxCell>
        <mxCell id="_Ka-3ppvNhgsYm56-xYQ-8" value="ifFound" style="html=1;align=left;spacingLeft=2;endArrow=block;edgeStyle=orthogonalEdgeStyle;curved=1;rounded=0;labelBackgroundColor=none;strokeColor=#006658;fontColor=default;fontStyle=1;fontSize=13;jumpSize=6;" edge="1" parent="7baba1c4bc27f4b0-4">
          <mxGeometry relative="1" as="geometry">
            <mxPoint x="55" y="229" as="sourcePoint" />
            <Array as="points">
              <mxPoint x="85" y="229" />
              <mxPoint x="85" y="269" />
            </Array>
            <mxPoint x="55" y="269" as="targetPoint" />
          </mxGeometry>
        </mxCell>
        <mxCell id="_Ka-3ppvNhgsYm56-xYQ-18" value="ifNotFound" style="html=1;align=left;spacingLeft=2;endArrow=block;edgeStyle=orthogonalEdgeStyle;curved=1;rounded=0;labelBackgroundColor=none;strokeColor=#006658;fontColor=default;fontStyle=1;fontSize=13;jumpSize=6;" edge="1" parent="7baba1c4bc27f4b0-4">
          <mxGeometry relative="1" as="geometry">
            <mxPoint x="55" y="270" as="sourcePoint" />
            <Array as="points">
              <mxPoint x="85" y="270" />
              <mxPoint x="85" y="310" />
            </Array>
            <mxPoint x="55" y="310" as="targetPoint" />
          </mxGeometry>
        </mxCell>
        <mxCell id="7baba1c4bc27f4b0-16" value="" style="html=1;points=[];perimeter=orthogonalPerimeter;rounded=0;shadow=0;comic=0;labelBackgroundColor=none;strokeWidth=1;fontFamily=Verdana;fontSize=13;align=center;fillColor=#21C0A5;strokeColor=#006658;fontColor=#5C5C5C;fontStyle=1" parent="7baba1c4bc27f4b0-4" vertex="1">
          <mxGeometry x="45" y="140" width="10" height="200" as="geometry" />
        </mxCell>
        <mxCell id="7baba1c4bc27f4b0-5" value=":Store" style="shape=umlLifeline;perimeter=lifelinePerimeter;whiteSpace=wrap;html=1;container=1;collapsible=0;recursiveResize=0;outlineConnect=0;rounded=1;shadow=0;comic=0;labelBackgroundColor=none;strokeWidth=1;fontFamily=Verdana;fontSize=13;align=center;fillColor=#21C0A5;strokeColor=#006658;fontColor=#5C5C5C;fontStyle=1" parent="1" vertex="1">
          <mxGeometry x="850" y="210" width="100" height="480" as="geometry" />
        </mxCell>
        <mxCell id="7baba1c4bc27f4b0-19" value="" style="html=1;points=[];perimeter=orthogonalPerimeter;rounded=0;shadow=0;comic=0;labelBackgroundColor=none;strokeWidth=1;fontFamily=Verdana;fontSize=13;align=center;fillColor=#21C0A5;strokeColor=#006658;fontColor=#5C5C5C;fontStyle=1" parent="1" vertex="1">
          <mxGeometry x="895" y="360" width="10" height="40" as="geometry" />
        </mxCell>
        <mxCell id="0Z-4yvtEVs7V2exSrzmo-2" value="" style="group;labelBackgroundColor=none;fontColor=#5C5C5C;fontStyle=1;fontSize=13;" parent="1" vertex="1" connectable="0">
          <mxGeometry x="160" y="210" width="80" height="480" as="geometry" />
        </mxCell>
        <mxCell id="_Ka-3ppvNhgsYm56-xYQ-9" value="return: resultString" style="html=1;verticalAlign=bottom;endArrow=open;dashed=1;endSize=8;curved=0;rounded=0;targetPerimeterSpacing=0;sourcePerimeterSpacing=0;startSize=0;labelBackgroundColor=none;strokeColor=#006658;fontColor=default;fontStyle=1;fontSize=13;" edge="1" parent="0Z-4yvtEVs7V2exSrzmo-2">
          <mxGeometry relative="1" as="geometry">
            <mxPoint x="560" y="270.11" as="sourcePoint" />
            <mxPoint x="45" y="270.11" as="targetPoint" />
          </mxGeometry>
        </mxCell>
        <mxCell id="KyJKAtGvloRyp1-fjpM2-8" value="" style="shape=umlLifeline;perimeter=lifelinePerimeter;whiteSpace=wrap;html=1;container=1;dropTarget=0;collapsible=0;recursiveResize=0;outlineConnect=0;portConstraint=eastwest;newEdgeStyle={&quot;curved&quot;:0,&quot;rounded&quot;:0};participant=umlActor;labelBackgroundColor=none;fillColor=#21C0A5;strokeColor=#006658;fontColor=#5C5C5C;fontStyle=1;fontSize=13;" parent="0Z-4yvtEVs7V2exSrzmo-2" vertex="1">
          <mxGeometry x="30" width="20" height="480" as="geometry" />
        </mxCell>
        <mxCell id="7baba1c4bc27f4b0-9" value="" style="html=1;points=[];perimeter=orthogonalPerimeter;rounded=0;shadow=0;comic=0;labelBackgroundColor=none;strokeWidth=1;fontFamily=Verdana;fontSize=13;align=center;fillColor=#21C0A5;strokeColor=#006658;fontColor=#5C5C5C;fontStyle=1" parent="0Z-4yvtEVs7V2exSrzmo-2" vertex="1">
          <mxGeometry x="35" y="80" width="10" height="310" as="geometry" />
        </mxCell>
        <mxCell id="0Z-4yvtEVs7V2exSrzmo-1" value="&lt;span style=&quot;font-size: 13px;&quot;&gt;&lt;font color=&quot;#000000&quot; style=&quot;font-size: 13px;&quot;&gt;&amp;lt;&amp;lt; USER &amp;gt;&amp;gt;&lt;/font&gt;&lt;/span&gt;" style="text;strokeColor=none;align=center;fillColor=none;html=1;verticalAlign=middle;whiteSpace=wrap;rounded=0;labelBackgroundColor=none;fontColor=#5C5C5C;fontStyle=1;fontSize=13;" parent="0Z-4yvtEVs7V2exSrzmo-2" vertex="1">
          <mxGeometry y="40" width="80" height="24" as="geometry" />
        </mxCell>
      </root>
    </mxGraphModel>
  </diagram>
</mxfile>
